<?xml version="1.0" encoding="UTF-8" standalone="no"?>
<!-- Created with Digital by H.Neemann -->
<!-- created: Sun Jun 30 21:00:06 CEST 2024 -->

<svg
   xmlns:svg="http://www.w3.org/2000/svg"
   xmlns="http://www.w3.org/2000/svg"
   width="68.4mm"
   height="39.9mm"
   viewBox="211 48 456 266">
<g stroke-linecap="square">
<path d="M 420,80 L 520,80 L 520,140 L 540,140" stroke="#0000b2" stroke-width="4.0" fill="none"/>
<path d="M 620,160 L 640,160" stroke="#0000b2" stroke-width="4.0" fill="none"/>
<path d="M 280,100 L 280,160 L 520,160" stroke="#0000b2" stroke-width="4.0" fill="none"/>
<path d="M 240,100 L 280,100 L 340,100" stroke="#0000b2" stroke-width="4.0" fill="none"/>
<path d="M 240,220 L 260,220 L 260,60 L 320,60" stroke="#0000b2" stroke-width="4.0" fill="none"/>
<path d="M 240,300 L 520,300 L 520,180 L 540,180" stroke="#0000b2" stroke-width="4.0" fill="none"/>
<g>
<circle cx="280.0" cy="100.0" r="4.0" stroke="#0000b2" stroke-width="4.0" fill="#0000b2" />
</g>
<g>
<circle cx="236.0" cy="100.0" r="4.0" stroke="#000000" stroke-width="4.0" fill="none" />
<text text-anchor="end" x="226.0" y="109.0" fill="#000000" style="font-size:24px"><tspan style="font-style:italic;">b</tspan></text>
<circle cx="240.0" cy="100.0" r="2.0" stroke="#b20000" stroke-width="4.0" fill="#b20000" />
</g>
<g>
<circle cx="236.0" cy="220.0" r="4.0" stroke="#000000" stroke-width="4.0" fill="none" />
<text text-anchor="end" x="226.0" y="229.0" fill="#000000" style="font-size:24px"><tspan style="font-style:italic;">a</tspan></text>
<circle cx="240.0" cy="220.0" r="2.0" stroke="#b20000" stroke-width="4.0" fill="#b20000" />
</g>
<g>
<circle cx="236.0" cy="300.0" r="4.0" stroke="#000000" stroke-width="4.0" fill="none" />
<text text-anchor="end" x="226.0" y="309.0" fill="#000000" style="font-size:24px"><tspan style="font-style:italic;">c</tspan></text>
<circle cx="240.0" cy="300.0" r="2.0" stroke="#b20000" stroke-width="4.0" fill="#b20000" />
</g>
<g>
<circle cx="644.0" cy="160.0" r="4.0" stroke="#000000" stroke-width="4.0" fill="none" />
<text text-anchor="start" x="654.0" y="169.0" fill="#000000" style="font-size:24px"><tspan style="font-style:italic;">z</tspan></text>
<circle cx="640.0" cy="160.0" r="2.0" stroke="#0000b2" stroke-width="4.0" fill="#0000b2" />
</g>
<g>
<path d="M 541,130 L 599,130 L 599,190 L 541,190 Z" stroke="#000000" stroke-width="4.0" fill="none"/>
<circle cx="610.0" cy="160.0" r="9.0" stroke="#000000" stroke-width="4.0" fill="none" />
<text text-anchor="middle" x="570.0" y="152.0" fill="#000000" style="font-size:24px">=1</text>
<circle cx="530.0" cy="160.0" r="8.0" stroke="#000000" stroke-width="4.0" fill="none" />
<circle cx="540.0" cy="140.0" r="2.0" stroke="#0000b2" stroke-width="4.0" fill="#0000b2" />
<circle cx="520.0" cy="160.0" r="2.0" stroke="#0000b2" stroke-width="4.0" fill="#0000b2" />
<circle cx="540.0" cy="180.0" r="2.0" stroke="#0000b2" stroke-width="4.0" fill="#0000b2" />
<circle cx="620.0" cy="160.0" r="2.0" stroke="#b20000" stroke-width="4.0" fill="#b20000" />
</g>
<g>
<path d="M 341,50 L 399,50 L 399,110 L 341,110 Z" stroke="#000000" stroke-width="4.0" fill="none"/>
<circle cx="410.0" cy="80.0" r="9.0" stroke="#000000" stroke-width="4.0" fill="none" />
<text text-anchor="middle" x="370.0" y="72.0" fill="#000000" style="font-size:24px">&amp;</text>
<circle cx="330.0" cy="60.0" r="8.0" stroke="#000000" stroke-width="4.0" fill="none" />
<circle cx="320.0" cy="60.0" r="2.0" stroke="#0000b2" stroke-width="4.0" fill="#0000b2" />
<circle cx="340.0" cy="100.0" r="2.0" stroke="#0000b2" stroke-width="4.0" fill="#0000b2" />
<circle cx="420.0" cy="80.0" r="2.0" stroke="#b20000" stroke-width="4.0" fill="#b20000" />
</g>
</g>
</svg>